<?xml version="1.0" standalone="no"?>
<!DOCTYPE svg PUBLIC "-//W3C//DTD SVG 20010904//EN"
 "http://www.w3.org/TR/2001/REC-SVG-20010904/DTD/svg10.dtd">
<svg version="1.0" xmlns="http://www.w3.org/2000/svg"
 width="600.000000pt" height="323.000000pt" viewBox="0 0 600.000000 323.000000"
 preserveAspectRatio="xMidYMid meet">
<metadata>
Created by potrace 1.16, written by Peter Selinger 2001-2019
</metadata>
<g transform="translate(0.000000,323.000000) scale(0.100000,-0.100000)"
fill="#000000" stroke="none">
<path d="M0 1615 l0 -1615 3000 0 3000 0 0 1615 0 1615 -3000 0 -3000 0 0
-1615z m3497 -452 c-1 -247 -2 -45 -2 447 0 492 1 694 2 448 2 -247 2 -649 0
-895z m856 966 c23 -12 66 -39 95 -60 l52 -40 53 40 c80 61 161 95 209 88 84
-11 112 -74 107 -235 l-4 -103 74 -31 c49 -21 91 -48 123 -78 44 -42 48 -50
48 -93 0 -67 -48 -118 -160 -170 -47 -22 -86 -41 -88 -42 -1 -1 3 -36 9 -77
15 -103 -1 -180 -46 -225 -56 -56 -137 -41 -257 47 l-69 50 -52 -41 c-111 -89
-208 -112 -266 -64 -44 38 -54 81 -49 205 l5 107 -83 38 c-112 50 -164 104
-164 172 0 43 4 51 48 93 30 29 73 57 117 75 39 16 73 31 78 35 4 3 3 40 -3
81 -17 122 9 214 71 247 31 17 97 9 152 -19z m-3472 -230 c74 -16 119 -60 126
-122 7 -60 -10 -102 -55 -132 -30 -20 -33 -25 -18 -31 22 -8 44 -52 66 -130
10 -34 21 -71 25 -83 6 -20 3 -21 -58 -21 l-65 0 -22 83 c-27 99 -40 117 -92
117 l-38 0 0 -100 0 -100 -60 0 -60 0 0 259 0 260 43 4 c90 8 158 7 208 -4z
m1967 -201 c-3 -246 -9 -265 -88 -306 -37 -19 -57 -23 -112 -20 -37 2 -69 6
-72 8 -2 3 -2 26 1 52 l5 47 47 -6 c37 -4 51 -1 71 15 25 20 25 21 28 221 l3
201 60 0 60 0 -3 -212z m383 199 c25 -12 25 -13 12 -59 -13 -45 -15 -47 -41
-37 -14 6 -49 10 -76 11 -40 0 -54 -5 -68 -22 -27 -33 -8 -55 87 -101 114 -54
149 -109 126 -196 -27 -101 -167 -150 -308 -108 l-51 15 10 43 c6 23 14 45 17
49 3 4 24 1 46 -7 84 -30 165 -11 165 39 0 30 -21 48 -100 84 -36 16 -78 44
-95 61 -26 28 -30 40 -30 86 0 63 22 98 81 132 32 18 54 23 119 22 44 0 92 -5
106 -12z m-836 -137 l45 0 0 -45 0 -45 -45 0 -45 0 0 -74 c0 -103 10 -126 55
-126 35 0 35 0 35 -45 0 -40 -3 -45 -26 -51 -14 -4 -46 -4 -71 -1 -85 9 -112
62 -113 215 0 81 0 82 -25 82 -23 0 -25 4 -25 45 0 41 2 45 25 45 22 0 25 4
25 40 0 37 2 40 38 49 79 20 77 22 80 -36 l3 -53 44 0z m-1034 -35 c41 -39 59
-83 59 -145 l0 -50 -125 0 c-69 0 -125 -3 -125 -6 0 -3 4 -14 10 -24 15 -29
74 -43 146 -36 36 4 64 3 64 -2 0 -5 3 -23 6 -39 6 -29 4 -31 -39 -42 -108
-27 -207 -5 -260 58 -74 89 -51 237 48 297 35 22 50 24 112 22 64 -3 76 -7
104 -33z m362 16 c56 -37 62 -54 67 -214 l5 -147 -53 0 c-37 0 -54 4 -58 14
-5 12 -12 11 -45 -6 -104 -54 -218 25 -189 132 17 64 70 98 183 115 75 12 23
51 -57 42 -28 -3 -58 -8 -67 -12 -11 -4 -18 4 -27 30 -10 36 -10 37 21 50 49
22 185 19 220 -4z m422 9 c4 -6 4 -28 0 -49 l-6 -38 -54 5 c-50 4 -57 2 -85
-26 -41 -42 -43 -106 -3 -146 24 -25 33 -27 85 -24 62 3 68 -2 68 -63 0 -22
-6 -28 -31 -33 -65 -13 -125 -6 -175 19 -142 71 -132 285 16 349 40 17 175 21
185 6z"/>
<path d="M4703 2096 c-43 -14 -90 -43 -135 -84 l-27 -24 51 -62 c51 -61 52
-61 130 -77 44 -8 81 -11 84 -7 10 15 17 155 10 189 -13 67 -46 85 -113 65z"/>
<path d="M4195 2064 c-14 -29 -16 -56 -13 -123 2 -48 7 -91 10 -97 5 -7 32 -5
86 5 78 16 79 16 130 78 l52 62 -43 34 c-60 49 -120 77 -165 77 -36 0 -41 -4
-57 -36z"/>
<path d="M4370 1788 c-8 -13 -33 -56 -57 -97 l-42 -75 40 -75 c70 -132 61
-126 189 -126 128 0 119 -6 189 126 l40 75 -42 75 c-76 132 -56 119 -187 119
-109 0 -116 -1 -130 -22z m173 -72 c71 -29 90 -120 38 -178 -26 -29 -35 -33
-81 -33 -46 0 -55 4 -81 33 -51 57 -33 148 36 178 38 17 49 17 88 0z"/>
<path d="M4817 1690 l-28 -77 27 -74 c15 -41 29 -76 31 -78 1 -2 41 15 87 38
128 63 155 111 95 171 -33 32 -86 63 -148 85 l-37 13 -27 -78z"/>
<path d="M4065 1731 c-71 -34 -125 -84 -125 -116 0 -35 34 -69 107 -107 110
-58 104 -59 137 28 l28 75 -28 75 c-18 50 -32 74 -43 74 -9 0 -43 -13 -76 -29z"/>
<path d="M4186 1353 c-10 -65 -7 -152 8 -188 31 -75 115 -52 265 72 3 2 -9 18
-26 36 -16 17 -40 46 -52 62 -19 25 -34 32 -89 42 -100 17 -99 18 -106 -24z"/>
<path d="M4703 1376 c-50 -9 -66 -17 -84 -41 -12 -16 -36 -45 -52 -62 l-30
-32 28 -23 c90 -72 165 -106 206 -93 12 4 27 22 35 41 14 35 19 138 8 193 -7
35 -10 35 -111 17z"/>
<path d="M758 1814 c-5 -4 -8 -39 -8 -77 l0 -70 50 5 c28 3 59 13 70 23 25 23
26 76 2 98 -20 18 -102 33 -114 21z"/>
</g>
</svg>
